<?xml version="1.0"?>
<svg xmlns="http://www.w3.org/2000/svg" xmlns:xlink="http://www.w3.org/1999/xlink" version="1.1" id="Layer_1" x="0px" y="0px" viewBox="0 0 512 512" style="enable-background:new 0 0 512 512;" xml:space="preserve" width="512px" height="512px"><g><g>
	<g>
		<g>
			<path d="M93.871,435.2c2.185,0,4.36-0.836,6.033-2.5c3.328-3.337,3.328-8.738,0-12.066l-68.745-68.71     c-0.58-0.503-14.089-12.553-14.089-36.19v-128c0-9.412,7.654-17.067,17.067-17.067c9.412,0,17.067,7.654,17.067,17.067v67.55     c0,4.719,3.814,8.533,8.533,8.533c4.71,0,8.533-3.814,8.533-8.533v-67.55c0-18.825-15.317-34.133-34.133-34.133     c-18.825,0-34.133,15.309-34.133,34.133v128c0,31.863,19.268,48.495,19.567,48.7L87.838,432.7     C89.502,434.364,91.686,435.2,93.871,435.2z" data-original="#000000" class="active-path" data-old_color="#f35353" fill="#f35353"/>
			<path d="M196.271,460.8H59.738c-4.719,0-8.533,3.823-8.533,8.533v34.133c0,4.71,3.814,8.533,8.533,8.533     c4.71,0,8.533-3.823,8.533-8.533v-25.6h119.467v25.6c0,4.71,3.814,8.533,8.533,8.533c4.71,0,8.533-3.823,8.533-8.533v-34.133     C204.804,464.623,200.981,460.8,196.271,460.8z" data-original="#000000" class="active-path" data-old_color="#f35353" fill="#f35353"/>
			<path d="M51.725,307.029c0.35,8.585,4.087,16.853,10.513,23.27l42.667,42.667c3.328,3.336,8.73,3.336,12.066,0     c3.328-3.337,3.328-8.738,0-12.066l-42.675-42.675c-3.388-3.379-5.342-7.603-5.521-11.887c-0.171-4.215,1.382-8.09,4.497-11.204     c3.106-3.115,7.006-4.659,11.204-4.497c4.284,0.179,8.508,2.142,11.896,5.53l60.126,60.109     c0.58,0.512,14.174,12.919,14.174,36.258V435.2c0,4.71,3.814,8.533,8.533,8.533c4.71,0,8.533-3.823,8.533-8.533v-42.667     c0-31.403-19.191-48.401-19.567-48.7L108.437,284.1c-6.417-6.426-14.686-10.163-23.262-10.513     c-9.011-0.358-17.493,2.995-23.97,9.481C54.72,289.545,51.358,298.061,51.725,307.029z" data-original="#000000" class="active-path" data-old_color="#f35353" fill="#f35353"/>
			<path d="M344.273,343.415c-0.811,0.717-20.002,17.715-20.002,49.118V435.2c0,4.71,3.814,8.533,8.533,8.533     c4.71,0,8.533-3.823,8.533-8.533v-42.667c0-23.339,13.585-35.746,14.566-36.634l59.725-59.733     c3.388-3.388,7.612-5.35,11.904-5.53c4.292-0.145,8.09,1.391,11.196,4.497c2.953,2.953,4.514,6.613,4.514,10.598     c0,4.497-1.971,8.934-5.547,12.501L395.029,360.9c-3.328,3.328-3.328,8.73,0,12.066c3.337,3.336,8.738,3.336,12.066,0     l42.667-42.658c6.793-6.784,10.539-15.514,10.547-24.576c0-8.482-3.371-16.529-9.515-22.664     c-6.477-6.485-15.087-9.83-23.962-9.481c-8.584,0.35-16.845,4.087-23.27,10.513L344.273,343.415z" data-original="#000000" class="active-path" data-old_color="#f35353" fill="#f35353"/>
			<path d="M409.596,93.867C409.596,42.103,367.492,0,315.738,0c-36.361,0-69.768,21.291-85.129,54.255     c-1.988,4.275-0.145,9.353,4.13,11.341c4.267,1.997,9.344,0.137,11.341-4.13c12.57-26.974,39.91-44.399,69.658-44.399     c42.342,0,76.791,34.449,76.791,76.8c0,50.099-50.97,129.707-136.525,177.971c-85.564-48.265-136.533-127.872-136.533-177.971     c0-42.351,34.449-76.8,76.8-76.8c10.692,0,21.035,2.15,30.746,6.4c4.318,1.886,9.353-0.077,11.238-4.395     c1.894-4.318-0.077-9.344-4.395-11.238C221.982,2.637,209.327,0,196.271,0c-51.763,0-93.867,42.103-93.867,93.867     c0,55.1,52.395,142.251,149.513,195.226c1.271,0.691,2.68,1.041,4.087,1.041c1.408,0,2.807-0.35,4.087-1.041     C357.201,236.117,409.596,148.975,409.596,93.867z" data-original="#000000" class="active-path" data-old_color="#f35353" fill="#f35353"/>
			<path d="M477.862,153.6c-18.816,0-34.133,15.309-34.133,34.133v67.55c0,4.719,3.823,8.533,8.533,8.533     c4.71,0,8.533-3.814,8.533-8.533v-67.55c0-9.412,7.654-17.067,17.067-17.067s17.067,7.654,17.067,17.067v128     c0,23.637-13.508,35.686-14.566,36.634l-68.267,68.267c-3.328,3.328-3.328,8.73,0,12.066c1.664,1.664,3.849,2.5,6.033,2.5     s4.369-0.836,6.033-2.5l67.738-67.78c0.819-0.691,20.096-17.323,20.096-49.186v-128C511.996,168.909,496.687,153.6,477.862,153.6     z" data-original="#000000" class="active-path" data-old_color="#f35353" fill="#f35353"/>
			<path d="M452.262,460.8H315.738c-4.719,0-8.533,3.823-8.533,8.533v34.133c0,4.71,3.814,8.533,8.533,8.533     c4.71,0,8.533-3.823,8.533-8.533v-25.6h119.458v25.6c0,4.71,3.823,8.533,8.533,8.533c4.71,0,8.533-3.823,8.533-8.533v-34.133     C460.796,464.623,456.973,460.8,452.262,460.8z" data-original="#000000" class="active-path" data-old_color="#f35353" fill="#f35353"/>
			<path d="M330.014,53.641c11.989,4.258,21.692,13.969,25.958,25.992c1.246,3.499,4.531,5.683,8.038,5.683     c0.947,0,1.911-0.162,2.859-0.495c4.437-1.579,6.758-6.46,5.188-10.897c-6.05-17.067-19.294-30.319-36.335-36.369     c-4.437-1.562-9.318,0.751-10.897,5.188C323.255,47.189,325.568,52.062,330.014,53.641z" data-original="#000000" class="active-path" data-old_color="#f35353" fill="#f35353"/>
		</g>
	</g>
</g></g> </svg>
