<?xml version="1.0" encoding="iso-8859-1"?>
<!-- Generator: Adobe Illustrator 16.0.0, SVG Export Plug-In . SVG Version: 6.00 Build 0)  -->
<!DOCTYPE svg PUBLIC "-//W3C//DTD SVG 1.1//EN" "http://www.w3.org/Graphics/SVG/1.1/DTD/svg11.dtd">
<svg xmlns="http://www.w3.org/2000/svg" xmlns:xlink="http://www.w3.org/1999/xlink" version="1.1" id="Capa_1" x="0px" y="0px" width="512px" height="512px" viewBox="0 0 612.002 612.002" style="enable-background:new 0 0 612.002 612.002;" xml:space="preserve">
<g>
	<path d="M599.015,115.517l-217.219-56.51h-4.252h-0.609c-8.504,0-15.432,5.483-16.709,13.675   c-1.756,11.252-7.952,20.28-18.529,27.947c-10.384,7.525-22.18,11.239-35.55,11.239c-13.364,0-25.212-3.643-35.848-11.239   c-10.629-7.596-16.605-16.728-18.53-27.947c-1.413-8.225-8.51-13.675-16.709-13.675h-1.218h-4.252l-217.22,56.51   c-8.847,2.301-14.103,11.802-11.848,20.656L30.9,255.571c1.912,7.505,8.808,12.457,17.013,12.457h80.206v268.26   c0,9.416,7.292,16.707,16.709,16.707h321.73c9.417,0,17.317-7.291,17.317-16.707v-268.26h80.206c7.596,0,14.531-5.25,16.404-12.457   l30.986-119.398C613.767,127.326,608.433,117.967,599.015,115.517z M551.015,234.306h-84.457c-8.809,0-16.709,7.596-16.709,17.013   v267.956H161.536V251.319c0-9.417-7.292-17.013-16.708-17.013H60.979l-23.702-90.232l186.537-48.305   c6.689,14.888,17.318,27.04,32.206,36.457c14.887,9.417,31.596,13.974,50.126,13.974c18.232,0,34.636-4.556,49.524-13.974   c14.887-9.417,25.821-21.569,32.503-36.457l186.537,48.305L551.015,234.306z" fill="#4ecdc4"/>
</g>
<g>
</g>
<g>
</g>
<g>
</g>
<g>
</g>
<g>
</g>
<g>
</g>
<g>
</g>
<g>
</g>
<g>
</g>
<g>
</g>
<g>
</g>
<g>
</g>
<g>
</g>
<g>
</g>
<g>
</g>
</svg>
